<svg width="40" height="40" viewBox="0 0 40 40" fill="none" xmlns="http://www.w3.org/2000/svg">
<rect width="40" height="40" rx="20" fill="#00844D"/>
<path d="M19.6663 13.667C19.0033 13.667 18.3674 13.9304 17.8986 14.3992C17.4297 14.8681 17.1663 15.504 17.1663 16.167C17.1663 16.83 17.4297 17.4659 17.8986 17.9348C18.3674 18.4036 19.0033 18.667 19.6663 18.667C20.3294 18.667 20.9653 18.4036 21.4341 17.9348C21.9029 17.4659 22.1663 16.83 22.1663 16.167C22.1663 15.504 21.9029 14.8681 21.4341 14.3992C20.9653 13.9304 20.3294 13.667 19.6663 13.667ZM20.4997 19.5003H18.833C16.533 19.5003 14.6663 21.367 14.6663 23.667V24.0837C14.6663 24.7753 15.2247 25.3337 15.9163 25.3337H23.4163C24.108 25.3337 24.6663 24.7753 24.6663 24.0837V23.667C24.6663 21.367 22.7997 19.5003 20.4997 19.5003ZM15.083 18.667C15.4747 18.667 15.833 18.567 16.1413 18.392C15.7918 17.8355 15.5781 17.2047 15.5173 16.5504C15.4565 15.8961 15.5504 15.2367 15.7913 14.6253C15.5747 14.5503 15.333 14.5003 15.083 14.5003C13.883 14.5003 12.9997 15.3837 12.9997 16.5837C12.9997 17.7837 13.883 18.667 15.083 18.667ZM14.758 19.5003H14.2497C12.6413 19.5003 11.333 20.8087 11.333 22.417V23.2503C11.333 23.4837 11.5163 23.667 11.7497 23.667H12.9997C12.9997 22.0337 13.6747 20.5587 14.758 19.5003ZM24.2497 18.667C25.4497 18.667 26.333 17.7837 26.333 16.5837C26.333 15.3837 25.4497 14.5003 24.2497 14.5003C23.9913 14.5003 23.758 14.5503 23.5413 14.6253C23.7823 15.2367 23.8762 15.8961 23.8154 16.5504C23.7546 17.2047 23.5408 17.8355 23.1913 18.392C23.4997 18.567 23.8497 18.667 24.2497 18.667ZM25.083 19.5003H24.5747C25.1315 20.042 25.574 20.6898 25.876 21.4055C26.178 22.1212 26.3334 22.8902 26.333 23.667H27.583C27.8163 23.667 27.9997 23.4837 27.9997 23.2503V22.417C27.9997 20.8087 26.6913 19.5003 25.083 19.5003Z" fill="white"/>
</svg>
