<svg width="40" height="40" viewBox="0 0 40 40" fill="none" xmlns="http://www.w3.org/2000/svg">
<rect width="40" height="40" rx="20" fill="#00844D"/>
<path d="M21.4341 27.191V24.7701H23.2009V27.269C23.2009 27.4756 23.1391 27.6488 23.0154 27.7888C22.8911 27.9294 22.738 27.9997 22.556 27.9997H22.1479C21.9424 27.9997 21.7722 27.923 21.6373 27.7698C21.5024 27.6165 21.4347 27.4239 21.4341 27.192M16.1337 27.192V24.0004H12.0551C11.7695 24.0004 11.5598 23.8575 11.4261 23.5716C11.2924 23.2857 11.3042 23.0082 11.4615 22.739L14.2344 18.0031H13.8943C13.6128 18.0031 13.4014 17.8611 13.2601 17.5773C13.1187 17.2934 13.1343 17.0168 13.3069 16.7476L16.4244 11.6809C16.5009 11.5609 16.5913 11.4729 16.6956 11.417C16.8004 11.361 16.9076 11.333 17.0171 11.333C17.1267 11.333 17.2339 11.361 17.3387 11.417C17.4423 11.4723 17.5327 11.5602 17.6099 11.6809L20.7274 16.7486C20.8994 17.0172 20.915 17.2934 20.7742 17.5773C20.6329 17.8611 20.4214 18.0031 20.1399 18.0031H19.7998L22.5772 22.74C22.7345 23.0085 22.7462 23.2857 22.6126 23.5716C22.4795 23.8575 22.2701 24.0004 21.9845 24.0004H17.9005V27.269C17.9005 27.4749 17.8387 27.6482 17.715 27.7888C17.5908 27.9287 17.4376 27.9987 17.2557 27.9987H16.8475C16.642 27.9987 16.4718 27.922 16.3369 27.7688C16.2021 27.6155 16.1343 27.4229 16.1337 27.191M24.1187 24.0004L21.0604 18.7727H21.4341C21.7197 18.7727 21.9329 18.6285 22.0737 18.3399C22.215 18.0527 22.1994 17.7745 22.0269 17.5053L20.0834 14.3717L21.7247 11.6809C21.8013 11.5609 21.8917 11.4729 21.9959 11.417C22.1008 11.361 22.208 11.333 22.3175 11.333C22.427 11.333 22.5342 11.361 22.6391 11.417C22.7427 11.4723 22.8331 11.5602 22.9103 11.6809L26.0278 16.7486C26.1997 17.0172 26.2153 17.2934 26.0746 17.5773C25.9332 17.8611 25.7218 18.0031 25.4403 18.0031H25.1002L27.8732 22.74C28.0304 23.0085 28.0422 23.2857 27.9085 23.5716C27.7748 23.8575 27.5652 24.0004 27.2795 24.0004H24.1187Z" fill="white"/>
</svg>
