<svg width="40" height="40" viewBox="0 0 40 40" fill="none" xmlns="http://www.w3.org/2000/svg">
<rect width="40" height="40" rx="20" fill="#00844D"/>
<path d="M13.1849 27.8327C12.6756 27.8327 12.2398 27.6515 11.8775 27.2892C11.5151 26.9268 11.3336 26.4907 11.333 25.9808V13.0179C11.333 12.5086 11.5145 12.0728 11.8775 11.7105C12.2404 11.3481 12.6762 11.1666 13.1849 11.166H23.37L27.9997 15.7956V25.9808C27.9997 26.4901 27.8185 26.9262 27.4562 27.2892C27.0938 27.6521 26.6577 27.8333 26.1478 27.8327H13.1849ZM15.0367 24.129H24.296V22.2771H15.0367V24.129ZM15.0367 20.4253H24.296V18.5734H15.0367V20.4253ZM22.4441 16.7216H26.1478L22.4441 13.0179V16.7216ZM15.0367 16.7216H19.6663V14.8697H15.0367V16.7216Z" fill="white"/>
</svg>
