<svg width="40" height="40" viewBox="0 0 40 40" fill="none" xmlns="http://www.w3.org/2000/svg">
<rect width="40" height="40" rx="20" fill="#00844D"/>
<path d="M14.0765 12.4449C14.1525 11.5032 14.9219 10.668 15.9626 10.668H23.37C24.4108 10.668 25.1802 11.5032 25.2562 12.4449C25.4166 14.4069 26.1307 16.283 27.3154 17.8551C27.708 18.3681 27.9997 19.0311 27.9997 19.7681V24.5571C27.9997 25.2938 27.707 26.0004 27.1861 26.5213C26.6651 27.0423 25.9586 27.3349 25.2219 27.3349H21.5182C21.2726 27.3349 21.0371 27.2374 20.8635 27.0637C20.6898 26.8901 20.5923 26.6546 20.5923 26.409V18.3394C20.5923 17.5449 21.1404 16.8607 21.7052 16.3023C22.1987 15.8134 22.5645 15.1745 22.82 14.5542C23.0167 14.0681 23.1686 13.5651 23.2737 13.0513C23.2868 12.9862 23.285 12.919 23.2687 12.8547C23.2523 12.7903 23.2217 12.7305 23.1792 12.6795C23.1366 12.6285 23.0832 12.5877 23.0228 12.5601C22.9624 12.5324 22.8966 12.5187 22.8302 12.5199H16.5025C16.4361 12.5187 16.3703 12.5324 16.3099 12.5601C16.2495 12.5877 16.1961 12.6285 16.1535 12.6795C16.111 12.7305 16.0804 12.7903 16.064 12.8547C16.0477 12.919 16.0459 12.9862 16.0589 13.0513C16.1641 13.5651 16.316 14.0681 16.5126 14.5542C16.7682 15.1745 17.133 15.8134 17.6275 16.3014C18.1923 16.8607 18.7404 17.5449 18.7404 18.3394V26.409C18.7404 26.6546 18.6429 26.8901 18.4692 27.0637C18.2956 27.2374 18.0601 27.3349 17.8145 27.3349H14.1108C13.3741 27.3349 12.6675 27.0423 12.1466 26.5213C11.6257 26.0004 11.333 25.2938 11.333 24.5571V19.7681C11.333 19.0302 11.6247 18.3681 12.0182 17.8551C12.6756 16.994 13.8608 15.1051 14.0765 12.4449Z" fill="white"/>
</svg>
